name analog
datacolumns 19
datarows 51
range 0.0 0.025
endheader
time	ground_force_vx	ground_force_vy	ground_force_vz	ground_force_px	ground_force_py	ground_force_pz	l_ground_force_vx	l_ground_force_vy	l_ground_force_vz	l_ground_force_px	l_ground_force_py	l_ground_force_pz	ground_torque_x	ground_torque_y	ground_torque_z	l_ground_torque_x	l_ground_torque_y	l_ground_torque_z
0.0	-0.0	-0.0	-0.0	-0.0449669808149337	41.40095138549805	-402.8012390136719	-1.3300317525863647	-38.597206115722656	-380.0509338378906	-0.0	-0.0	-0.0	-0.0	-0.0	-0.0	94564.2734375	6451.32861328125	-4178.49462890625
0.0005	-0.0	-0.0	-0.0	-0.2677972912788391	41.5344352722168	-402.8000793457031	-1.5525587797164917	-39.12603378295898	-379.0064392089844	-0.0	-0.0	-0.0	-0.0	-0.0	-0.0	94758.1328125	6205.3662109375	-4119.6318359375
0.001	-0.0	-0.0	-0.0	-0.3124626874923706	41.53494644165039	-403.6861267089844	-1.729942798614502	-39.03868103027344	-378.8314514160156	-0.0	-0.0	-0.0	-0.0	-0.0	-0.0	94654.1796875	6428.21630859375	-4134.2822265625
0.0015	-0.0	-0.0	-0.0	-0.2676315307617187	41.93587493896485	-405.626953125	-1.3306617736816406	-38.81732940673828	-379.7021789550781	-0.0	-0.0	-0.0	-0.0	-0.0	-0.0	94873.625	6508.88720703125	-4089.629638671875
0.002	-0.0	-0.0	-0.0	-0.4014675915241241	41.80211639404297	-404.9208984375	-1.862891674041748	-38.81743621826172	-378.8298950195313	-0.0	-0.0	-0.0	-0.0	-0.0	-0.0	94641.78125	6508.47900390625	-4164.14990234375
0.0025	-0.0	-0.0	-0.0	-0.1783050149679184	42.15879440307617	-404.9205627441406	-1.729920506477356	-38.81752395629883	-379.00433349609375	-0.0	-0.0	-0.0	-0.0	-0.0	-0.0	94674.890625	6661.26416015625	-4119.56591796875
0.003	-0.0	-0.0	-0.0	0.2678031921386719	42.02558517456055	-405.2743225097656	-1.7743111848831177	-38.8614501953125	-379.00390625	-0.0	-0.0	-0.0	-0.0	-0.0	-0.0	94941.2890625	6600.73388671875	-4089.890380859375
0.0035	-0.0	-0.0	-0.0	-0.0894575789570808	42.069801330566406	-406.1608276367188	-1.6853344440460205	-38.90544891357422	-379.3555908203125	-0.0	-0.0	-0.0	-0.0	-0.0	-0.0	94680.015625	6576.40234375	-4060.3076171875
0.004	-0.0	-0.0	-0.0	-0.2238324433565139	42.02450180053711	-406.3316040039063	-1.7744611501693726	-38.86130142211914	-379.8779602050781	-0.0	-0.0	-0.0	-0.0	-0.0	-0.0	94743.75	6484.4912109375	-3986.278076171875
0.0045000000000000005	-0.0	-0.0	-0.0	-0.1336233615875244	41.84653472900391	-406.8663330078125	-1.8187247514724727	-38.86154174804688	-379.52783203125	-0.0	-0.0	-0.0	-0.0	-0.0	-0.0	94611.8671875	6482.74072265625	-4015.60400390625
0.005	-0.0	-0.0	-0.0	-0.1340392976999282	41.97997283935547	-405.2713317871094	-1.7745850086212158	-39.03855514526367	-378.6571044921875	-0.0	-0.0	-0.0	-0.0	-0.0	-0.0	94423.2890625	6629.443359375	-3971.51220703125
0.0055	-0.0	-0.0	-0.0	-0.2238099724054336	42.42555236816406	-407.4002990722656	-1.7742156982421875	-38.59658050537109	-378.9962158203125	-0.0	-0.0	-0.0	-0.0	-0.0	-0.0	94564.046875	6601.7255859375	-3970.991943359375
0.006	-0.0	-0.0	-0.0	-0.4478461146354675	41.937347412109375	-407.7427062988281	-1.772657871246338	-38.68593215942383	-377.6105346679688	-0.0	-0.0	-0.0	-0.0	-0.0	-0.0	94632.921875	6746.2109375	-3956.05712890625
0.006500000000000001	-0.0	-0.0	-0.0	-0.2650173306465149	42.29270553588867	-405.8011474609375	-1.6860796213150024	-38.59714889526367	-377.9622802734375	-0.0	-0.0	-0.0	-0.0	-0.0	-0.0	94531.078125	6517.68212890625	-3911.72802734375
0.007	-0.0	-0.0	-0.0	0.2669025659561157	42.2934684753418	-405.6343688964844	-1.3759915828704834	-38.77451705932617	-377.7846374511719	-0.0	-0.0	-0.0	-0.0	-0.0	-0.0	94474.3984375	6679.525390625	-3837.271240234375
0.0075	-0.0	-0.0	-0.0	-0.224232792854309	42.06954956054688	-406.6946716308594	-1.9523619413375852	-38.46445846557617	-377.9637756347656	-0.0	-0.0	-0.0	-0.0	-0.0	-0.0	94358.15625	6823.51953125	-3852.530517578125
0.008	-0.0	-0.0	-0.0	-0.2693513929843902	42.245235443115234	-407.0415954589844	-1.8189610242843628	-38.33161163330078	-377.6151428222656	-0.0	-0.0	-0.0	-0.0	-0.0	-0.0	94614.6796875	6657.33203125	-3808.28759765625
0.0085	-0.0	-0.0	-0.0	-0.1342834234237671	42.38290786743164	-406.6996765136719	-1.8172887563705444	-38.50740814208984	-377.083740234375	-0.0	-0.0	-0.0	-0.0	-0.0	-0.0	94458.71875	6656.291015625	-3792.809814453125
0.009000000000000001	-0.0	-0.0	-0.0	0.0020214617252349	42.34098434448242	-406.6726989746094	-1.6864347457885742	-38.110347747802734	-377.076416015625	-0.0	-0.0	-0.0	-0.0	-0.0	-0.0	94238.734375	6664.7685546875	-3719.50634765625
0.0095	-0.0	-0.0	-0.0	-0.4019805192947387	42.42501068115234	-405.9909057617188	-1.7732304334640503	-38.10737609863281	-377.7742919921875	-0.0	-0.0	-0.0	-0.0	-0.0	-0.0	94206.4453125	6746.52685546875	-3615.615478515625
0.01	-0.0	-0.0	-0.0	0.1772791743278503	42.246673583984375	-406.1750183105469	-1.8639867305755613	-37.936805725097656	-377.2604064941406	-0.0	-0.0	-0.0	-0.0	-0.0	-0.0	94325.578125	6826.251953125	-3571.355224609375
0.0105	-0.0	-0.0	-0.0	-0.1820727288722992	41.93524932861328	-404.5748596191406	-1.9078494310379028	-37.980587005615234	-375.8594970703125	-0.0	-0.0	-0.0	-0.0	-0.0	-0.0	93934.109375	6793.8896484375	-3570.688720703125
0.011	-0.0	-0.0	-0.0	-0.175875186920166	41.760772705078125	-405.6296997070313	-1.994206786155701	-37.98188400268555	-376.3854370117188	-0.0	-0.0	-0.0	-0.0	-0.0	-0.0	93998.8515625	6764.3466796875	-3617.0380859375
0.0115	-0.0	-0.0	-0.0	0.002696618437767	41.98042297363281	-404.5863037109375	-1.64304780960083	-37.84395599365234	-376.37548828125	-0.0	-0.0	-0.0	-0.0	-0.0	-0.0	94091.6015625	6784.71484375	-3541.224853515625
0.012	-0.0	-0.0	-0.0	-0.4460525512695312	41.89271545410156	-406.6838989257813	-1.637798309326172	-37.845176696777344	-376.031005859375	-0.0	-0.0	-0.0	-0.0	-0.0	-0.0	93792.8671875	6666.10791015625	-3452.70263671875
0.0125	-0.0	-0.0	-0.0	-0.3992179632186889	41.93659973144531	-405.46234130859375	-1.731964349746704	-38.02318572998047	-375.50982666015625	-0.0	-0.0	-0.0	-0.0	-0.0	-0.0	93900.8046875	6893.47802734375	-3480.644287109375
0.013000000000000001	-0.0	-0.0	-0.0	-0.0438310913741588	42.11179733276367	-407.56353759765625	-1.689898133277893	-37.804595947265625	-375.1778259277344	-0.0	-0.0	-0.0	-0.0	-0.0	-0.0	93987.984375	6838.5283203125	-3422.168701171875
0.0135	-0.0	-0.0	-0.0	-0.3049300611019134	41.79729080200195	-406.86328125	-1.5921759605407717	-37.80015182495117	-374.9827880859375	-0.0	-0.0	-0.0	-0.0	-0.0	-0.0	93823.078125	6727.61083984375	-3332.59130859375
0.014	-0.0	-0.0	-0.0	-0.0437556989490985	41.711334228515625	-406.3436279296875	-1.9064747095108032	-37.53832244873047	-376.3918151855469	-0.0	-0.0	-0.0	-0.0	-0.0	-0.0	93643.921875	6535.08837890625	-3393.131103515625
0.0145	-0.0	-0.0	-0.0	-0.0017550140619277	41.533016204833984	-406.5101318359375	-1.2871413230895996	-37.536720275878906	-374.646240234375	-0.0	-0.0	-0.0	-0.0	-0.0	-0.0	93775.8359375	6627.08203125	-3169.390625
0.015	-0.0	-0.0	-0.0	0.0873800963163375	41.491119384765625	-406.86328125	-1.6420220136642456	-37.62330627441406	-374.63970947265625	-0.0	-0.0	-0.0	-0.0	-0.0	-0.0	93548.90625	6520.794921875	-3242.9375
0.0155	-0.0	-0.0	-0.0	0.3170013129711151	41.716835021972656	-406.1569213867188	-1.1514203548431396	-37.49889755249024	-376.0291137695313	-0.0	-0.0	-0.0	-0.0	-0.0	-0.0	93542.984375	6521.029296875	-3140.812744140625
0.016	-0.0	-0.0	-0.0	0.1823440045118332	41.6278190612793	-407.0437622070313	-1.106071949005127	-37.62690734863281	-375.1744995117188	-0.0	-0.0	-0.0	-0.0	-0.0	-0.0	93814.8984375	6492.47998046875	-3139.586669921875
0.0165	-0.0	-0.0	-0.0	0.0435868091881275	41.44157028198242	-406.6665344238281	-1.2458515167236328	-37.93708038330078	-374.4689636230469	-0.0	-0.0	-0.0	-0.0	-0.0	-0.0	93731.8203125	6482.06298828125	-3049.45556640625
0.017	-0.0	-0.0	-0.0	-0.1763087213039398	41.71092224121094	-405.4505615234375	-0.889133095741272	-37.53873443603516	-373.59222412109375	-0.0	-0.0	-0.0	-0.0	-0.0	-0.0	93710.6875	6356.74951171875	-2991.74169921875
0.0175	-0.0	-0.0	-0.0	0.045689184218645	41.66954803466797	-405.2954406738281	-0.8437926769256592	-37.89000701904297	-374.3069152832031	-0.0	-0.0	-0.0	-0.0	-0.0	-0.0	93498.8203125	6332.38037109375	-3033.869140625
0.018000000000000002	-0.0	-0.0	-0.0	-0.0412403792142868	41.49132537841797	-405.8126220703125	-1.1553956270217896	-37.81026458740234	-374.6311950683594	-0.0	-0.0	-0.0	-0.0	-0.0	-0.0	93826.359375	6169.14453125	-2916.780517578125
0.0185	-0.0	-0.0	-0.0	0.0457645803689956	41.431739807128906	-407.0444641113281	-1.1033087968826294	-37.98054885864258	-373.4396057128906	-0.0	-0.0	-0.0	-0.0	-0.0	-0.0	93698.0	6374.61767578125	-2991.294921875
0.019	-0.0	-0.0	-0.0	-0.1255056262016296	41.489017486572266	-406.7008056640625	-1.144097089767456	-38.066650390625	-373.7623291015625	-0.0	-0.0	-0.0	-0.0	-0.0	-0.0	93768.9453125	6394.78564453125	-3036.214599609375
0.0195	-0.0	-0.0	-0.0	-0.0458301156759262	41.6214485168457	-407.2359008789063	-1.1053436994552612	-38.24563980102539	-375.1587829589844	-0.0	-0.0	-0.0	-0.0	-0.0	-0.0	94015.203125	6288.4580078125	-2902.349609375
0.02	-0.0	-0.0	-0.0	-0.6269986629486084	41.40233612060547	-407.9528198242188	-1.066965103149414	-37.799259185791016	-374.9792785644531	-0.0	-0.0	-0.0	-0.0	-0.0	-0.0	93922.625	6232.38671875	-2931.0458984375
0.0205	-0.0	-0.0	-0.0	-0.3161185681819916	41.71302795410156	-405.6425476074219	-1.2344472408294678	-38.38199996948242	-376.186279296875	-0.0	-0.0	-0.0	-0.0	-0.0	-0.0	94089.59375	6283.26611328125	-3008.36767578125
0.021	-0.0	-0.0	-0.0	-0.4027722179889679	41.4888801574707	-406.3702392578125	-1.41937255859375	-38.41993713378906	-375.1583862304688	-0.0	-0.0	-0.0	-0.0	-0.0	-0.0	94124.9765625	6360.94287109375	-3004.261962890625
0.021500000000000002	-0.0	-0.0	-0.0	-0.7164093255996704	41.66982650756836	-406.8525085449219	-1.7232574224472046	-38.55110168457031	-376.2264709472656	-0.0	-0.0	-0.0	-0.0	-0.0	-0.0	94293.203125	6372.7294921875	-2962.14794921875
0.022	-0.0	-0.0	-0.0	-0.71368408203125	42.11831283569336	-405.7815856933594	-1.325229525566101	-38.773223876953125	-377.083740234375	-0.0	-0.0	-0.0	-0.0	-0.0	-0.0	94442.1171875	6333.2958984375	-2947.53076171875
0.0225	-0.0	-0.0	-0.0	-0.575583815574646	41.76187515258789	-406.6697387695313	-1.061764359474182	-38.86429977416992	-377.083740234375	-0.0	-0.0	-0.0	-0.0	-0.0	-0.0	94543.125	6316.04248046875	-2856.525146484375
0.023	-0.0	-0.0	-0.0	-0.7048889398574829	41.44564056396485	-407.0689086914063	-1.2018556594848633	-38.72481918334961	-376.9035949707031	-0.0	-0.0	-0.0	-0.0	-0.0	-0.0	94669.40625	6283.7216796875	-2857.48876953125
0.0235	-0.0	-0.0	-0.0	-0.7046627402305603	41.31044006347656	-405.474365234375	-1.239035964012146	-38.99257659912109	-379.3704528808594	-0.0	-0.0	-0.0	-0.0	-0.0	-0.0	94651.8984375	6402.484375	-2846.137939453125
0.024	-0.0	-0.0	-0.0	-0.7598206996917725	41.184364318847656	-405.81585693359375	-1.2419509887695312	-38.82181930541992	-378.2999267578125	-0.0	-0.0	-0.0	-0.0	-0.0	-0.0	94942.0859375	6426.3583984375	-2758.14404296875
0.0245	-0.0	-0.0	-0.0	-0.7966182827949524	41.300968170166016	-406.3397521972656	-1.4132819175720217	-38.99251174926758	-379.190673828125	-0.0	-0.0	-0.0	-0.0	-0.0	-0.0	94783.8046875	6350.9501953125	-2741.019287109375
0.025	-0.0	-0.0	-0.0	-0.6642584800720215	41.128868103027344	-405.48876953125	-1.2419509887695312	-39.07768630981445	-380.2138366699219	-0.0	-0.0	-0.0	-0.0	-0.0	-0.0	95383.390625	6515.1259765625	-2728.720458984375
